<svg width="18" height="18" viewBox="0 0 18 18" fill="none" xmlns="http://www.w3.org/2000/svg">
<path d="M10.937 8.47781C10.9303 8.5762 10.8735 8.66475 10.7698 8.7533C10.7296 8.78609 10.6862 8.81889 10.646 8.8484C10.6092 8.87792 10.5758 8.90744 10.539 8.93367C10.3985 9.0419 10.2514 9.11077 10.0975 9.13701C9.5055 9.23867 9.12421 9.25179 8.9737 9.17636C8.79978 9.09109 8.75295 8.76641 8.73288 8.64507V8.60571C8.70947 8.50405 8.64927 8.29088 8.64593 8.2876C8.64593 8.28104 8.64258 8.27776 8.64258 8.27448C8.64927 8.2548 8.68941 8.22856 8.70948 8.21217L8.73288 8.18921C8.90681 8.03507 9.12086 7.87437 9.4085 7.83501C9.50884 7.82189 9.60249 7.78582 9.69279 7.75302C9.73628 7.73335 9.77976 7.72023 9.82658 7.70711C9.90017 7.68087 9.96371 7.68087 10.0139 7.70055C10.2881 7.80222 10.5925 7.93996 10.8266 8.19577C10.9102 8.29087 10.9504 8.38598 10.9437 8.48109L10.937 8.47781Z" fill="#FFE888"/>
<path d="M9.93735 10.1835C9.83701 10.2623 9.72663 10.3639 9.63298 10.4918C9.5594 10.5935 9.44903 10.6296 9.33865 10.6558C9.33196 10.6558 9.32862 10.6591 9.32528 10.6591L8.97075 10.7608C8.94733 10.7706 8.91054 10.7804 8.86037 10.7935H8.84699C8.54932 10.8755 8.30182 10.8427 8.061 10.6919C7.78674 10.5213 7.69644 10.2688 7.78674 9.96053C7.88708 9.64897 8.07438 9.45876 8.36202 9.38332C8.39547 9.37349 8.42557 9.35381 8.44564 9.34069C8.45567 9.33085 8.47908 9.31445 8.48577 9.31445C8.51253 9.32757 8.5326 9.36037 8.55601 9.38988C8.56939 9.40956 8.58277 9.42268 8.5928 9.4358C8.73662 9.60962 8.92392 9.69488 9.14801 9.69488H9.15805C9.36207 9.69488 9.5594 9.68177 9.70991 9.66537C9.89052 9.65553 9.97748 9.70144 10.041 9.84903C10.0879 9.96381 10.0511 10.0819 9.934 10.1803L9.93735 10.1835Z" fill="#F4D13D"/>
<path d="M7.42199 10.7804C7.42199 10.7804 7.4153 10.7869 7.41196 10.7902C7.32834 10.9083 7.06077 11.0034 6.86344 11.046C6.86009 11.046 6.8534 11.0493 6.84337 11.0493C6.77313 11.0788 6.68951 11.0919 6.56576 11.0919C6.1711 11.151 6.0741 11.0985 6.07075 11.0985C6.06406 11.0886 6.05069 11.0788 6.03731 11.0755C6.01724 11.0722 5.99048 11.0624 5.94031 11.0427C5.72291 10.9509 5.50886 10.8591 5.2948 10.7672C5.20115 10.7312 5.17773 10.6918 5.17773 10.682C5.1978 10.3606 5.52224 9.94735 5.86004 9.94079L6.08413 9.93423C6.22126 9.92768 6.3517 9.9244 6.48549 9.92112C6.56576 9.91784 6.65606 9.9244 6.72965 9.96047C6.78651 9.98671 6.83333 9.99327 6.87681 9.97359C6.92698 9.95391 6.96377 9.91456 6.99388 9.84569L7.00391 9.81617C7.01394 9.78665 7.02732 9.75386 7.0407 9.72434C7.04405 9.7145 7.04739 9.7145 7.05073 9.71778C7.04739 9.79321 7.06411 9.85224 7.10759 9.8916C7.14438 9.93423 7.20459 9.95391 7.28152 9.95063C7.22466 10.1868 7.30493 10.3999 7.37516 10.5902C7.38854 10.6295 7.40192 10.6754 7.40861 10.7213L7.4153 10.7607L7.41865 10.7738L7.42199 10.7804Z" fill="#FFE888"/>
<path d="M7.58247 8.90101C7.32493 9.1765 7.02057 9.35688 6.68276 9.43887C6.61921 9.45854 6.55232 9.45854 6.47874 9.46182C6.44529 9.46182 6.40851 9.46182 6.3784 9.4651C6.22121 9.4651 6.01049 9.45198 5.81316 9.34376C5.4787 9.15354 5.41515 8.64849 5.58907 8.34348C5.68272 8.17623 5.79978 8.068 5.95363 8.01225C6.12421 7.94993 6.30817 7.91058 6.50215 7.89746H6.53226C6.64932 7.89746 6.74966 7.94665 6.80986 8.04504C6.93027 8.2451 7.10754 8.35332 7.36507 8.38612C7.50555 8.39924 7.61257 8.47795 7.65605 8.58945C7.69619 8.69768 7.66609 8.81246 7.57913 8.90757L7.58247 8.90101Z" fill="#F4D13D"/>
<path d="M9.07457 7.4221C8.88393 7.64839 8.63307 7.78941 8.3655 7.94027L8.34209 7.95339C8.12135 8.00259 7.94408 7.98947 7.93739 7.98947C7.69323 7.99603 7.49924 7.95011 7.32532 7.85173C7.17816 7.77302 7.06444 7.5664 7.04437 7.34995C7.03434 7.23188 7.04772 7.00559 7.25174 6.84489C7.35543 6.75963 7.45242 6.70387 7.54607 6.66452L7.60962 6.635C7.60962 6.635 7.74675 6.55957 7.97084 6.55957C7.98422 6.55957 8.00094 6.56285 8.01432 6.56285C8.118 6.57597 8.22168 6.58253 8.31868 6.58581C8.3956 6.58909 8.47588 6.58909 8.55615 6.59565C8.60297 6.60221 8.63977 6.60548 8.65983 6.60876C8.66318 6.61204 8.66987 6.61532 8.6799 6.61532C8.71 6.62188 8.81034 6.65468 8.93075 6.7629C9.07122 6.89081 9.08795 6.93672 9.10801 6.98592C9.10801 6.99248 9.11136 6.99903 9.1147 7.00559C9.22173 7.13678 9.2117 7.25484 9.07457 7.4221Z" fill="#F4D13D"/>
<path d="M17.968 8.59288C17.9312 8.46498 17.8543 8.38299 17.7305 8.34035C17.6135 8.301 17.4998 8.26492 17.3894 8.21245C17.0014 8.03207 16.5766 7.85497 16.1218 7.77298C15.8207 7.71723 15.5097 7.66804 15.212 7.62212C14.921 7.57621 14.6167 7.53029 14.3223 7.47782C13.8708 7.39583 13.3892 7.36304 12.8975 7.37943C13.1651 7.2089 13.329 6.95637 13.4527 6.73336C13.4929 6.66448 13.5297 6.59233 13.5665 6.52346C13.6066 6.44803 13.6467 6.3726 13.6902 6.30045C13.8675 5.98889 13.8441 5.71669 13.6099 5.45104C13.5163 5.34281 13.4059 5.30674 13.2688 5.33625C12.9444 5.40184 12.6166 5.50679 12.1985 5.66749C12.0647 5.71996 11.9276 5.76588 11.7938 5.80523C11.5329 5.8905 11.262 5.97577 11.0112 6.13319C11.0145 6.12663 11.0145 6.12007 11.0178 6.11679L11.0279 6.09384C11.1015 5.90362 11.175 5.71669 11.2486 5.52647C11.3924 5.16572 11.5396 4.79184 11.6734 4.41797C11.7771 4.12937 11.8741 3.8342 11.9677 3.54888C12.0848 3.19796 12.2018 2.83393 12.3323 2.48302C12.4861 2.06979 12.4494 1.69592 12.2219 1.345C12.1651 1.25973 12.0814 1.12855 11.9142 1.11215C11.5597 1.08263 11.2787 1.18758 11.0881 1.43027L11.0346 1.49586C10.8473 1.73199 10.6533 1.97468 10.4459 2.20097C10.2385 2.42726 10.0111 2.647 9.7937 2.86017C9.57965 3.0635 9.36225 3.27667 9.15822 3.49641C9.15154 3.50297 9.14485 3.50953 9.13816 3.51608C9.13481 3.51608 9.13481 3.51936 9.13147 3.51936C9.08464 3.37506 9.03447 3.23404 8.9843 3.09302C8.94082 2.97167 8.89734 2.85033 8.8572 2.72898C8.77359 2.48957 8.64649 2.26984 8.47926 2.07963C8.27858 1.85334 8.04781 1.82054 7.79027 1.97796C7.41232 2.21081 7.13471 2.56828 6.94407 3.07334C6.76346 3.5456 6.76346 4.03754 6.77349 4.50324C6.77684 4.56555 6.77684 4.62458 6.77684 4.6869C6.76011 4.65082 6.74674 4.61474 6.73001 4.57867C6.64305 4.36878 6.5494 4.14904 6.40558 3.95883C6.31528 3.84404 6.22497 3.73254 6.13132 3.61775C6.00423 3.46033 5.87379 3.29963 5.75004 3.13565C5.37209 2.6142 4.91722 2.11242 4.2784 1.5057C3.97069 1.2171 3.63623 0.921934 3.19139 0.548062C3.14122 0.508707 3.09439 0.466072 3.04757 0.426717C2.91044 0.308652 2.76996 0.187308 2.61945 0.082361C2.56259 0.0462856 2.39871 -0.0652203 2.24485 0.0528447C2.01407 0.233222 1.89701 0.433276 1.88363 0.662847C1.87025 0.902257 1.90036 1.14495 1.93046 1.35156C1.97394 1.63688 2.05087 1.90909 2.15121 2.23377C2.23482 2.50269 2.32847 2.78802 2.46895 3.05694C2.58266 3.26356 2.70307 3.48985 2.78334 3.73254C2.86027 3.96867 2.97064 4.21464 3.12784 4.5098C3.31848 4.86727 3.53923 5.21163 3.75329 5.54615C3.84694 5.69373 3.94058 5.83803 4.03423 5.98889C4.10447 6.09712 4.17471 6.21846 4.2416 6.35292C4.21819 6.33981 4.19478 6.32669 4.16802 6.31685C3.58271 6.05776 3.04087 5.89378 2.51242 5.81507C2.47898 5.80851 2.44219 5.80523 2.4054 5.80195L2.33516 5.79212C1.77326 5.70685 1.26153 5.72652 0.769867 5.84459C0.689596 5.86427 0.619359 5.90362 0.555811 5.95937C0.378545 6.11679 0.34844 6.47755 0.495604 6.71368C0.652802 6.96949 0.883585 7.1597 1.10433 7.34008L1.14112 7.36959C1.18126 7.40567 1.22474 7.44175 1.26487 7.47782C1.41873 7.609 1.57927 7.74019 1.75319 7.85825C1.61606 7.83202 1.48228 7.8189 1.34515 7.8189C0.836761 7.8189 0.41868 8.04519 0.100939 8.49449C0.0173233 8.61256 -0.0161226 8.74046 0.00728983 8.85853C0.0307023 8.98315 0.114319 9.09466 0.248104 9.1832C0.321686 9.2324 0.405303 9.27175 0.488919 9.31111C0.686253 9.40294 0.886927 9.48821 1.08092 9.55708C1.26822 9.62595 1.42876 9.73745 1.59599 9.85552C1.64616 9.89159 1.69967 9.92767 1.74984 9.96047C1.96725 10.1048 2.19134 10.1835 2.43215 10.1999C2.4656 10.1999 2.49905 10.2032 2.53249 10.2064C2.5927 10.2097 2.6529 10.2163 2.70976 10.2163C2.69638 10.2261 2.68635 10.236 2.67297 10.2458C2.62614 10.2753 2.57932 10.3081 2.53584 10.3409C2.14786 10.6393 1.76991 10.9968 1.3117 11.5051C0.890273 11.9741 0.569188 12.4956 0.361821 13.0531C0.131041 13.6762 0.0909048 14.237 0.241414 14.7618C0.361821 15.1816 0.445436 15.3849 1.05082 15.421C1.40869 15.4406 1.62609 15.3226 1.75988 15.0373C1.8368 14.87 1.9639 14.7224 2.14451 14.5847C2.32178 14.4535 2.48901 14.2862 2.64286 14.0895C2.9606 13.6762 3.39541 13.1449 3.92052 12.6956C3.94393 12.676 3.97069 12.6563 3.99744 12.6399C4.00748 12.6333 4.02086 12.6235 4.03089 12.6169L4.01082 12.6891C3.97403 12.8104 3.93724 12.935 3.90714 13.0597C3.78339 13.5614 3.70311 14.0927 3.67301 14.6437C3.63622 15.3127 3.64626 15.867 3.70312 16.3917C3.72987 16.618 3.78673 16.9099 3.98407 17.1592L3.99744 17.1755C4.04427 17.2346 4.10447 17.3067 4.20481 17.3067H4.21819C4.41887 17.2903 4.6764 17.2477 4.87039 17.0345C4.92056 16.9788 4.97073 16.923 5.01756 16.8673C5.06773 16.8115 5.11455 16.7558 5.16472 16.7033L5.27175 16.5852C5.50253 16.3294 5.74 16.0638 5.9273 15.7653C5.93734 15.7489 5.94403 15.7424 5.94403 15.7391C5.94737 15.7424 5.95406 15.7489 5.96075 15.762C5.98416 15.8014 6.01426 15.8342 6.04437 15.867L6.06108 15.8867C6.10791 15.9359 6.15139 15.9588 6.20156 15.9621C6.24504 15.9654 6.29187 15.9424 6.33535 15.9031C6.38552 15.8572 6.43569 15.8145 6.48586 15.7719C6.68319 15.5981 6.88721 15.421 7.01431 15.1684C7.03438 15.1324 7.06113 15.0963 7.09793 15.0602C7.10796 15.0471 7.3287 14.7552 7.41567 14.5912L7.42236 14.5814C7.42236 14.5814 7.42904 14.565 7.43239 14.5617C7.55949 14.2895 7.63307 14.0403 7.65982 13.8041C7.66317 13.7713 7.6732 13.7451 7.69996 13.7123C7.72337 13.6861 7.75682 13.6467 7.78358 13.6402C7.82371 13.7254 8.10131 14.2895 8.28193 14.5125C8.29196 14.5256 8.302 14.5388 8.31203 14.5519L8.33544 14.5781C8.4525 14.729 8.57291 14.8831 8.70335 15.0274C9.08464 15.4439 9.49938 15.8834 9.99773 16.2409C10.4359 16.5557 10.8707 16.7558 11.3256 16.8476C11.6165 16.9099 11.8841 16.6902 11.941 16.4573C11.9844 16.2737 11.951 16.1031 11.9075 15.9293C11.8674 15.7719 11.8306 15.6145 11.7938 15.4538C11.7336 15.2045 11.6734 14.9454 11.6065 14.6929C11.466 14.1747 11.2821 13.5746 10.951 13.0203L10.9811 13.0302C11.0279 13.0498 11.0747 13.0662 11.1249 13.0859L11.2419 13.1285C11.4827 13.2204 11.7303 13.3122 11.9844 13.3778C12.4594 13.4959 12.9276 13.486 13.4494 13.4598C13.7671 13.4467 14.0447 13.3352 14.2755 13.1285C14.3558 13.0597 14.3759 12.981 14.3357 12.8826C14.3056 12.8071 14.2555 12.7514 14.2019 12.6989L14.1752 12.6661C14.0916 12.5776 14.0113 12.489 13.9277 12.4005C13.7604 12.2234 13.5865 12.043 13.436 11.8495C13.3925 11.7905 13.3457 11.7347 13.3022 11.6757C13.1183 11.4363 12.9276 11.1903 12.7069 10.9706C12.6467 10.9115 12.5965 10.8427 12.543 10.7705L12.5029 10.718C12.5029 10.718 12.4995 10.7115 12.4962 10.7115H12.5029C12.8139 10.7443 13.125 10.7312 13.4494 10.6689C13.9511 10.577 14.4494 10.5016 14.9344 10.4327C15.0582 10.413 15.1786 10.3967 15.3023 10.3803C15.5599 10.3442 15.8274 10.3081 16.0883 10.2556C16.2087 10.2327 16.3191 10.1868 16.4295 10.1376C16.6502 10.0359 16.8375 9.96047 17.0248 9.90471C17.2456 9.83256 17.5265 9.72106 17.7272 9.47837C17.9713 9.18648 18.0516 8.89788 17.968 8.59288ZM11.8707 6.18239L11.941 6.15943C12.058 6.11679 12.1717 6.07744 12.2855 6.03808C12.5664 5.94298 12.8607 5.84131 13.1417 5.72324C13.1986 5.69701 13.2521 5.69701 13.2922 5.72324C13.3424 5.75604 13.3725 5.83147 13.3725 5.9233C13.3725 6.00201 13.3123 6.1004 13.2721 6.16599C13.0915 6.47099 12.8775 6.82518 12.6333 7.14986C12.5229 7.304 12.3691 7.40567 12.1751 7.45486C12.1082 7.47454 12.0413 7.49094 11.9744 7.50734C11.767 7.55653 11.5563 7.60572 11.359 7.70411C11.0312 7.87137 10.7938 8.04191 10.6098 8.24524L10.5931 8.26492L10.563 8.29444C10.4727 8.38627 10.4727 8.38955 10.3824 8.31083C10.1349 8.1075 9.9208 7.98944 9.69671 7.92712C9.70006 7.92384 9.7034 7.92384 9.70675 7.92056C9.77698 7.86809 9.84387 7.81562 9.91411 7.76314L10.0479 7.66476C10.1717 7.56965 10.2787 7.45486 10.379 7.34336C10.4426 7.27449 10.5095 7.20562 10.5763 7.14002C10.6165 7.10395 10.66 7.07115 10.7034 7.03836C10.7938 6.96949 10.8841 6.90061 10.9409 6.80223C11.1449 6.43819 11.4995 6.31357 11.8707 6.18239ZM7.09458 8.80933C7.22168 8.82245 7.31867 8.89132 7.35881 8.99299C7.3956 9.09138 7.36884 9.19632 7.28857 9.28159C7.05445 9.53084 6.78019 9.69482 6.47248 9.77025C6.41562 9.78665 6.35542 9.78665 6.28852 9.78993C6.25842 9.78993 6.22497 9.78993 6.19822 9.79321C6.0544 9.79321 5.86375 9.78009 5.68649 9.6817C5.38212 9.50788 5.32527 9.05202 5.48246 8.77326C5.56608 8.6224 5.67311 8.52401 5.81358 8.47153C5.96744 8.41578 6.13467 8.37971 6.31193 8.36659H6.33869C6.44572 8.36659 6.53602 8.4125 6.58954 8.50105C6.69991 8.68143 6.86046 8.77982 7.09458 8.80933ZM6.99089 7.41551C7.08454 7.3368 7.17151 7.28761 7.25847 7.25153L7.31532 7.22529C7.31532 7.22529 7.43908 7.15642 7.6431 7.15642C7.65648 7.15642 7.66986 7.1597 7.68324 7.1597C7.77689 7.17282 7.87054 7.1761 7.96084 7.17938C8.03108 7.17938 8.10466 7.17938 8.1749 7.18922C8.21838 7.19578 8.25183 7.19906 8.26855 7.20234C8.26855 7.20234 8.27858 7.2089 8.28527 7.2089C8.31203 7.21545 8.40233 7.24497 8.51271 7.34336C8.6398 7.45814 8.65653 7.50078 8.67325 7.54669C8.67325 7.55325 8.67659 7.55981 8.67994 7.56309C8.77693 7.68116 8.7669 7.78938 8.64315 7.94024C8.46923 8.14686 8.24179 8.27476 8.00098 8.40922L7.98091 8.42234C7.78023 8.46826 7.61969 8.45514 7.613 8.45514C7.39225 8.4617 7.21499 8.41906 7.05779 8.33051C6.92401 8.25836 6.82032 8.07143 6.8036 7.87465C6.79356 7.76642 6.80694 7.56309 6.99089 7.41551ZM7.57286 9.37998C7.65982 9.20616 7.68658 9.05202 7.65982 8.8946C7.65648 8.8782 7.65648 8.87164 7.65314 8.86836H7.68324C7.7033 8.86836 7.72672 8.87164 7.74679 8.86508C7.87723 8.86508 7.89729 8.8782 7.93408 8.98971C7.96084 9.06514 7.98091 9.14385 7.99763 9.22256L8.01436 9.29471C8.02105 9.31439 8.0177 9.33079 7.9876 9.3439L7.9575 9.35702C7.90399 9.38326 7.85047 9.4095 7.79695 9.42261C7.62638 9.46525 7.48256 9.5538 7.35212 9.68826L7.3354 9.70466C7.29526 9.74729 7.25847 9.78665 7.2083 9.80632C7.37219 9.68826 7.49594 9.54396 7.57286 9.37998ZM7.47252 10.2425C7.56283 9.96047 7.7334 9.78665 7.99429 9.71778C8.02439 9.70794 8.05115 9.69154 8.07122 9.67842C8.08125 9.66858 8.10132 9.65546 8.10801 9.65546C8.13142 9.66858 8.15149 9.6981 8.17156 9.72434C8.18494 9.74073 8.19497 9.75385 8.205 9.76697C8.33544 9.92439 8.50602 10.0031 8.71004 10.0031H8.72008C8.90403 10.0031 9.08464 9.98998 9.22177 9.97686C9.38566 9.96702 9.46593 10.0097 9.52279 10.1441C9.56627 10.2491 9.53283 10.354 9.4258 10.4458C9.33549 10.518 9.23515 10.6098 9.14819 10.7246C9.0813 10.8164 8.98096 10.8492 8.88062 10.8722C8.87393 10.8722 8.87058 10.8755 8.86724 10.8755L8.54615 10.9673C8.52609 10.9771 8.49264 10.9837 8.44582 10.9968H8.43244C8.16152 11.0722 7.93743 11.0427 7.72003 10.905C7.47253 10.7508 7.38891 10.5213 7.47252 10.2425ZM8.5495 9.53084C8.3923 9.45213 8.34882 9.16025 8.3321 9.04874V9.01267C8.31203 8.92084 8.25517 8.72734 8.25183 8.72406C8.25183 8.7175 8.25183 8.71422 8.25183 8.71094C8.25851 8.69455 8.29531 8.66831 8.31203 8.65519L8.3321 8.63551C8.4893 8.49449 8.68329 8.35019 8.94417 8.31411C9.03447 8.301 9.12143 8.2682 9.2017 8.23868C9.24184 8.22229 9.28197 8.20917 9.32211 8.19605C9.389 8.17309 9.44586 8.17309 9.49269 8.18949C9.74019 8.28132 10.0178 8.40594 10.2285 8.63879C10.3054 8.72406 10.3422 8.81261 10.3355 8.89788C10.3288 8.98643 10.2787 9.06842 10.185 9.14713C10.1482 9.17665 10.1081 9.20616 10.0713 9.2324C10.0379 9.25863 10.0078 9.28487 9.97432 9.31111C9.84722 9.4095 9.71343 9.47181 9.57296 9.49477C9.03447 9.58659 8.68998 9.59971 8.55285 9.53084H8.5495ZM9.72347 10.413C9.7335 10.3704 9.75022 10.3245 9.77364 10.2819C9.81377 10.213 9.85725 10.1244 9.85725 10.0162C9.85725 9.96375 9.84722 9.90799 9.82046 9.84896C9.91077 9.78337 9.99773 9.72106 10.0847 9.65218C10.1215 9.62595 10.1616 9.61611 10.2018 9.62923C10.262 9.64235 10.3054 9.6817 10.3255 9.74401C10.3255 9.74401 10.3589 9.80632 10.3623 9.91783C10.3623 10.0293 10.3322 10.1146 10.272 10.1671C10.2653 10.1704 10.262 10.1736 10.2553 10.1769C10.2553 10.1769 10.2452 10.1868 10.2385 10.19C10.2018 10.2163 10.165 10.2458 10.1282 10.272C10.0345 10.3475 9.94087 10.4163 9.82715 10.4393L9.75691 10.4491C9.73016 10.4557 9.72347 10.4458 9.72347 10.4458C9.72347 10.4458 9.71678 10.4393 9.72347 10.413ZM8.93748 4.31302C8.93748 4.31302 8.9542 4.2999 8.95754 4.29335L9.30204 3.87356L9.36225 3.81453L9.81712 3.3849C9.91077 3.28323 10.0111 3.18813 10.1114 3.0963C10.2218 2.99791 10.3322 2.89296 10.4325 2.78146C10.5596 2.64044 10.6901 2.50269 10.8205 2.36823C10.874 2.31248 10.9275 2.25344 10.9811 2.19769C11.1081 2.06323 11.2085 1.91893 11.2854 1.77135C11.3657 1.61393 11.6232 1.46635 11.8072 1.47618C11.8339 1.47946 11.8507 1.4893 11.8707 1.5221C11.9811 1.68936 12.0346 1.85006 12.0346 2.01732C12.0346 2.1321 12.0112 2.24033 11.9644 2.34199C11.7604 2.81097 11.6098 3.30619 11.466 3.78501C11.4359 3.88012 11.4058 3.97523 11.3791 4.07033C11.155 4.79512 10.874 5.64781 10.4994 6.45131C10.3523 6.77271 10.2084 7.05803 9.96763 7.28761C9.88067 7.37287 9.78032 7.46798 9.66661 7.53685C9.50941 7.62868 9.35221 7.74019 9.2017 7.87137C9.12812 7.93368 9.04116 7.9468 8.94417 7.95992C8.9542 7.92384 8.96758 7.89105 8.9843 7.85825C9.10805 7.56309 9.05454 7.35976 8.80035 7.1597C8.6398 7.03508 8.46588 6.90717 8.2351 6.88094C8.16821 6.8711 8.11804 6.8219 8.07456 6.72024C7.96753 6.47427 7.94077 6.22174 7.99429 5.97577C8.108 5.46088 8.35217 4.9919 8.71339 4.58195C8.7669 4.5262 8.81373 4.46388 8.85052 4.40157C8.87393 4.36222 8.90403 4.32942 8.93748 4.31302ZM7.05779 4.44749C7.05779 4.36878 7.06448 4.29007 7.06448 4.21136C7.07117 4.16872 7.10127 3.96211 7.13472 3.77517L7.15144 3.6735C7.21499 3.32915 7.27854 3.00447 7.50263 2.73226C7.6431 2.56173 7.81368 2.42726 8.01101 2.33543C8.07456 2.30264 8.1749 2.27968 8.29531 2.41742C8.37892 2.51581 8.44916 2.6306 8.49933 2.76506C8.58629 2.99463 8.6699 3.2242 8.75352 3.45705L8.82376 3.65711C8.86724 3.76861 8.85051 3.84732 8.77359 3.92931C8.54281 4.18184 8.25517 4.49668 8.04446 4.8476C7.77354 5.30346 7.62303 5.70029 7.57286 6.09384C7.53607 6.37588 7.57621 6.63825 7.69661 6.86454C7.69996 6.87438 7.70665 6.88422 7.70665 6.89078H7.68658C7.63975 6.8875 7.59628 6.89406 7.54611 6.89734C7.52604 6.90061 7.50597 6.90061 7.47252 6.90717C7.44911 6.91045 7.44242 6.91045 7.44242 6.91045C7.44242 6.91045 7.43573 6.89734 7.43573 6.86126C7.43573 6.59233 7.38891 6.32997 7.29191 6.05776C7.15144 5.66749 7.09793 5.25426 7.06113 4.90007C7.04776 4.75249 7.05444 4.59507 7.06113 4.44749H7.05779ZM1.14112 6.80223C1.03744 6.71368 0.940442 6.60873 0.856826 6.49067C0.810001 6.43163 0.79328 6.38244 0.806659 6.34309C0.816692 6.30373 0.860174 6.26765 0.933756 6.23486C1.23812 6.11351 1.56589 6.04464 1.91373 6.03808C1.93715 6.03808 1.95721 6.0348 1.97728 6.0348C2.34185 6.0348 2.72648 6.11351 3.17132 6.27094C3.2449 6.29717 3.31514 6.32341 3.38537 6.34636C3.57602 6.41196 3.77335 6.47755 3.95731 6.57266C4.20481 6.694 4.4289 6.86126 4.64296 7.02196C4.68979 7.05803 4.73327 7.09083 4.78009 7.12363C4.82357 7.15642 4.8704 7.1925 4.91388 7.22529C5.00753 7.29744 5.10452 7.3696 5.20486 7.43519C5.39885 7.56637 5.60622 7.63524 5.82696 7.6418H5.95406C6.04771 7.64836 6.1447 7.64836 6.2417 7.64836C6.29856 7.64836 6.34873 7.62212 6.37214 7.57949C6.39555 7.54013 6.3922 7.48438 6.35876 7.43191C6.30859 7.34992 6.23166 7.30072 6.14136 7.29744C5.62628 7.26793 5.28513 6.95965 4.9908 6.63169C4.7734 6.39228 4.61286 6.11024 4.45566 5.83475L4.4289 5.78884C4.22823 5.43792 4.00079 5.09028 3.78339 4.75577C3.71649 4.6541 3.6496 4.55243 3.58271 4.44749C3.49241 4.30646 3.42216 4.16544 3.37534 4.0277C3.275 3.71942 3.13787 3.42098 3.00408 3.13565C2.95391 3.03071 2.90375 2.92248 2.85692 2.81753C2.77331 2.6306 2.70307 2.4371 2.63618 2.24689L2.57597 2.06979C2.50239 1.86973 2.45557 1.66968 2.4054 1.44339C2.34854 1.19742 2.32512 0.935053 2.33181 0.63989C2.33181 0.580858 2.34185 0.531664 2.36191 0.48575C2.38198 0.436556 2.39871 0.426717 2.40874 0.423438C2.41543 0.423438 2.43215 0.423438 2.47563 0.449674C2.59604 0.525105 2.7131 0.620213 2.82348 0.708761C2.86361 0.741557 2.90375 0.774353 2.94054 0.807149C3.6496 1.37452 4.16802 1.83694 4.6162 2.31576C4.99749 2.71587 5.37543 3.16517 5.81693 3.72598C6.3019 4.3491 6.57616 5.05093 6.78353 5.65765C6.81029 5.73636 6.83704 5.81507 6.86714 5.8905C6.94073 6.08728 7.01766 6.29061 7.04776 6.50051C7.06114 6.60545 7.07451 6.71696 7.06782 6.83174C7.05779 7.01212 6.97417 7.1433 6.82366 7.21873C6.47916 7.39583 6.4591 7.70739 6.47582 7.92384V7.94352C6.47917 7.97632 6.48251 8.00911 6.47916 8.01567C6.47248 8.02223 6.429 8.03207 6.39555 8.03535C6.02095 8.10094 5.72662 8.20261 5.47243 8.36003C5.41223 8.39283 5.37209 8.43218 5.33865 8.47809C5.26841 8.58304 5.16138 8.63879 5.01422 8.64535C4.7433 8.65847 4.49914 8.63551 4.27171 8.56992C4.17471 8.54041 4.08106 8.51417 3.98407 8.48793C3.78339 8.43218 3.57602 8.37315 3.37534 8.30756C3.0275 8.18949 2.683 7.996 2.31509 7.71723L2.10772 7.56309C1.78664 7.3204 1.45217 7.06787 1.14112 6.80223ZM2.46225 9.8096C2.17127 9.80305 1.95387 9.63251 1.77326 9.47509C1.77326 9.47509 1.76657 9.46853 1.76323 9.46853C1.66623 9.37014 1.39866 9.25535 1.1846 9.17009C1.18126 9.17009 1.17457 9.16681 1.17122 9.16681C1.08426 9.14713 1.00065 9.12089 0.917032 9.08154C0.796625 9.0225 0.662839 8.96675 0.508986 8.911C0.462161 8.8946 0.432059 8.87492 0.42537 8.85525C0.415336 8.83557 0.425367 8.79949 0.44878 8.75358C0.539085 8.57648 0.689596 8.43874 0.937099 8.30756C1.08426 8.23213 1.2515 8.18949 1.39866 8.18949H1.4388C1.61272 8.18949 1.72978 8.21245 1.83012 8.27148C2.02745 8.38299 2.24485 8.4289 2.45556 8.46826L2.51911 8.48137C2.67631 8.51417 2.82682 8.57976 2.97064 8.64207C3.01412 8.66175 3.06094 8.68143 3.10442 8.69783C3.6496 8.9274 4.23826 9.0553 4.85367 9.08154H4.88378C4.88378 9.08154 4.90719 9.08154 4.91388 9.08482C4.94063 9.09138 4.96739 9.0881 4.99415 9.08482C5.04097 9.08154 5.04432 9.08482 5.05101 9.10449C5.08445 9.18976 5.051 9.30455 4.9908 9.35374C4.92391 9.40622 4.84029 9.41605 4.74999 9.42589H4.72323C4.53927 9.45213 4.38542 9.49149 4.24829 9.54396C4.06099 9.61939 3.87369 9.69154 3.68639 9.76369C3.53923 9.81944 3.39541 9.87848 3.24825 9.93423C3.2148 9.94735 3.19807 9.95063 3.18135 9.94407C2.94722 9.83912 2.69638 9.81616 2.46225 9.8096ZM3.76332 12.266C3.25828 12.6825 2.83016 13.1745 2.47563 13.5975C2.25154 13.873 2.0007 14.1255 1.76323 14.3551C1.57927 14.5322 1.43545 14.7093 1.32842 14.893C1.26487 14.9979 1.1846 15.0438 1.07088 15.0307C0.759831 15.0012 0.689595 14.9684 0.622702 14.6798C0.582567 14.4961 0.572532 14.3092 0.569187 14.0862C0.555808 13.791 0.662839 13.4631 0.759834 13.2105C1.01403 12.5284 1.45886 11.8987 2.11107 11.2789C2.65959 10.7607 3.20811 10.3868 3.79008 10.1277C4.17805 9.95719 4.51252 9.86864 4.84029 9.84896C4.87374 9.84896 4.91388 9.84896 4.95067 9.82928C4.98411 9.81288 5.01421 9.80632 5.04766 9.80632C5.11121 9.80632 5.17476 9.83912 5.25837 9.91455C5.30185 9.95391 5.35202 9.99654 5.35202 10.0129C5.35202 10.0293 5.29851 10.0818 5.25837 10.1179C5.11121 10.2589 4.98746 10.4163 4.89381 10.5836C4.69982 10.9312 4.73326 11.187 5.00753 11.4658C5.02425 11.4822 5.0276 11.4888 5.03094 11.492C5.0276 11.492 5.02425 11.4986 5.00753 11.5117C4.96405 11.5412 4.91388 11.5675 4.85033 11.5904C4.42221 11.7446 4.06434 12.02 3.76332 12.266ZM5.5527 15.621C5.49919 15.6833 5.44902 15.7522 5.40219 15.8178C5.37878 15.8506 5.35537 15.8834 5.32861 15.9162C5.09114 16.2277 4.84364 16.5098 4.58945 16.7623C4.556 16.7951 4.51586 16.8279 4.4657 16.864C4.37205 16.9263 4.34194 16.923 4.27505 16.8345C4.18809 16.723 4.13458 16.5885 4.11116 16.4245C4.08106 16.2343 4.07437 16.0375 4.06433 15.8473C4.05765 15.7096 4.05096 15.5718 4.03758 15.4341C4.01417 15.1094 4.0242 14.7749 4.06768 14.4371C4.08106 14.3223 4.09444 14.2075 4.10782 14.0895C4.14461 13.7385 4.18474 13.3745 4.28508 13.0269C4.38542 12.6858 4.50917 12.43 4.68309 12.2234C4.76337 12.1217 4.85033 12.0594 4.95067 12.0266C5.14131 11.9676 5.28513 11.8495 5.41891 11.7347C5.47577 11.6822 5.52595 11.6593 5.57946 11.6593C5.59618 11.6593 5.6129 11.6626 5.63297 11.6691C5.68649 11.6822 5.69318 11.7052 5.68649 11.7413C5.68314 11.761 5.6798 11.7806 5.67645 11.8003C5.67311 11.8331 5.66642 11.8659 5.65639 11.8987C5.57611 12.1742 5.54601 12.4529 5.52595 12.7875C5.50588 13.1548 5.49584 13.4565 5.49584 13.7385C5.49919 14.1715 5.55939 14.5814 5.67311 14.9586C5.75673 15.2275 5.71994 15.4308 5.5527 15.621ZM5.8002 11.2297C5.60287 11.1477 5.40888 11.0624 5.21489 10.9804C5.13128 10.9476 5.10787 10.9115 5.10787 10.9017C5.12459 10.6098 5.41891 10.236 5.72662 10.2294L5.93064 10.2228C6.0544 10.2163 6.17481 10.213 6.29521 10.2097C6.3688 10.2064 6.44906 10.213 6.51596 10.2458C6.56613 10.2687 6.60961 10.2753 6.64974 10.2589C6.69657 10.2425 6.73001 10.2064 6.75677 10.1441L6.7668 10.1179C6.77684 10.0916 6.78687 10.0621 6.80025 10.0359C6.8036 10.0261 6.80694 10.0261 6.81029 10.0293C6.81029 10.0982 6.82366 10.1507 6.86045 10.1868C6.8939 10.2261 6.94741 10.2425 7.01765 10.2392C6.96748 10.4524 7.03772 10.6459 7.10127 10.8197C7.11465 10.8558 7.12468 10.8984 7.13137 10.9378L7.13806 10.9739L7.14141 10.987C7.13806 10.9903 7.13472 10.9935 7.13137 10.9968C7.05445 11.105 6.81363 11.1903 6.63302 11.2297C6.62968 11.2297 6.62299 11.2329 6.6163 11.2329C6.55275 11.2592 6.47582 11.2723 6.36545 11.2723C6.00757 11.3248 5.92061 11.2789 5.91727 11.2789C5.91058 11.269 5.90055 11.2625 5.88717 11.2592C5.87044 11.2559 5.84368 11.2461 5.8002 11.2297ZM7.25178 13.9714C7.04107 14.4994 6.74005 14.9684 6.35207 15.3652C6.34873 15.3652 6.34204 15.3751 6.34204 15.3751C6.32866 15.3849 6.31863 15.398 6.30525 15.4079C6.29187 15.4243 6.26176 15.4505 6.25507 15.4538C6.23835 15.4439 6.22832 15.4308 6.22163 15.4144C6.22163 15.4046 6.22163 15.4079 6.21494 15.4013C6.15139 15.2701 6.07112 14.929 6.04437 14.8241C5.93734 14.3846 5.88717 13.9386 5.90054 13.4991C5.90389 13.3909 5.90389 13.2827 5.90389 13.1745C5.90389 12.9974 5.90389 12.817 5.91727 12.6399C5.94068 12.3414 6.02095 12.0496 6.09119 11.8298C6.12464 11.7282 6.16477 11.7052 6.31193 11.7052H6.35876C6.429 11.7118 6.50592 11.715 6.51596 11.7249C6.52265 11.7347 6.5193 11.7839 6.5193 11.8265C6.51596 11.8495 6.51596 11.8757 6.51596 11.902C6.50258 12.3775 6.68654 12.794 6.88053 13.1843C6.88387 13.1941 6.89056 13.2073 6.89724 13.2171C6.91397 13.24 6.92735 13.263 6.93404 13.2892C6.96748 13.4007 7.04775 13.4696 7.1113 13.5155C7.28857 13.6434 7.32871 13.7746 7.25178 13.9714ZM7.81034 12.7284L7.78023 12.794C7.70999 12.9514 7.63641 13.1121 7.52604 13.2499C7.49594 13.2892 7.45915 13.3089 7.4257 13.3089H7.41901C7.38557 13.3056 7.35546 13.2827 7.3354 13.2433C7.15144 12.8859 6.9608 12.5153 6.88053 12.1053C6.82367 11.8003 6.88721 11.5904 7.09123 11.4297C7.12803 11.4002 7.16147 11.3707 7.19492 11.3412C7.22502 11.3117 7.25178 11.2854 7.28522 11.2592C7.31198 11.2395 7.33539 11.2297 7.36215 11.2297C7.38556 11.2297 7.41232 11.2395 7.43573 11.2625C7.52604 11.3444 7.62638 11.3936 7.75682 11.4166C7.88392 11.4396 7.9575 11.5248 7.97757 11.6724C7.98426 11.7314 7.99094 11.797 7.99429 11.8593C7.99763 11.8921 8.00098 11.9282 8.00098 11.9577C8.01436 12.2463 7.91402 12.5087 7.81034 12.7284ZM11.4761 15.7096L11.4894 15.7686C11.5329 15.9523 11.5731 16.1228 11.5931 16.2901C11.5931 16.3688 11.5697 16.4278 11.5262 16.4606C11.4861 16.4868 11.4326 16.4901 11.369 16.4704C11.1784 16.4081 10.9777 16.3393 10.7302 16.2507C10.6098 16.2081 10.4994 16.1392 10.3656 16.0277C10.2452 15.9227 10.1181 15.8244 9.99438 15.726C9.74688 15.5325 9.49269 15.3291 9.27863 15.0897C8.88731 14.6437 8.54281 14.2338 8.27524 13.7549C8.20835 13.6303 8.16821 13.4959 8.12473 13.3548C8.10132 13.2663 8.07456 13.1745 8.03777 13.0892C8.02773 13.0531 8.0478 13.0105 8.06118 12.9908C8.29196 12.6169 8.37892 12.1873 8.34213 11.6035C8.3321 11.4461 8.35217 11.4199 8.51605 11.3838C8.57626 11.3674 8.6398 11.3576 8.70335 11.3444C8.75018 11.3379 8.80035 11.3281 8.84717 11.3182C8.96089 11.2953 9.05788 11.2395 9.15488 11.1837L9.19502 11.1641C9.19502 11.1641 9.2084 11.1542 9.21174 11.1542C9.21174 11.1542 9.21174 11.1564 9.21174 11.1608C9.28532 11.4625 9.46593 11.7052 9.6432 11.9381L9.66995 11.9774C9.76695 12.102 9.85725 12.2201 9.93084 12.3513C9.95759 12.3972 9.98769 12.4431 10.0379 12.4726C10.3288 12.6432 10.4693 12.9219 10.6165 13.2138C10.961 13.8992 11.2252 14.6699 11.4727 15.7096H11.4761ZM12.5564 11.3182C12.5564 11.3182 12.5564 11.3215 12.5631 11.3248C12.737 11.5215 12.8975 11.7347 13.048 11.9446L13.145 12.0725C13.3792 12.3939 13.5899 12.6432 13.8006 12.8563C13.8441 12.899 13.8574 12.9186 13.8574 12.9186C13.8508 12.9318 13.7905 12.958 13.7705 12.9678C13.5731 13.0662 13.3557 13.0892 13.0949 13.0925H13.0748C12.2554 13.0925 11.543 12.9219 10.8941 12.5776C10.6499 12.4464 10.3723 12.2988 10.1482 12.0856C10.0713 12.0102 10.0211 11.9184 9.96428 11.8233C9.93084 11.7708 9.90073 11.715 9.8606 11.6626C9.79705 11.574 9.74019 11.4822 9.67999 11.3904C9.64654 11.3379 9.61309 11.2887 9.57965 11.2362C9.53617 11.1739 9.50606 11.0985 9.48934 11.0132C9.46927 10.8984 9.50607 10.8361 9.6131 10.8C9.66995 10.7804 9.72681 10.7705 9.77698 10.7705C9.97431 10.7607 10.1616 10.6918 10.3623 10.5573C10.3723 10.5508 10.3824 10.5442 10.389 10.5377L10.4258 10.5016C10.4426 10.4885 10.5061 10.4557 10.7135 10.4557C10.7703 10.4557 10.8406 10.459 10.9242 10.4655H10.9376C11.2954 10.4688 11.5898 10.5016 11.864 10.6393C11.9376 10.6754 12.0045 10.7246 12.0714 10.7738C12.1048 10.8 12.1416 10.8263 12.1818 10.8558L12.1985 10.8755C12.4059 11.1313 12.5263 11.2821 12.5564 11.3182ZM17.5232 9.0881C17.4095 9.26191 17.2523 9.39638 17.0549 9.48493C16.4194 9.76369 15.8508 9.95391 15.3124 10.0654C15.0414 10.1212 14.7605 10.154 14.4795 10.1605C14.0983 10.1736 13.7337 10.2556 13.3959 10.3442C13.1016 10.4196 12.8072 10.3901 12.5564 10.354C12.2788 10.3179 12.0045 10.2458 11.7369 10.1802C11.5831 10.1408 11.4326 10.1015 11.2787 10.0687C11.2152 10.0556 11.1483 10.0425 11.0847 10.0293C11.0112 10.0129 10.9342 9.99654 10.8606 9.98014C10.7637 9.95719 10.7168 9.90471 10.7135 9.81616C10.7101 9.6653 10.6834 9.45213 10.476 9.30455C10.4727 9.30127 10.4626 9.29471 10.4626 9.28815C10.4593 9.28159 10.466 9.26847 10.476 9.25863C10.6031 9.11105 10.6265 8.9274 10.6332 8.76998C10.6332 8.66503 10.6767 8.59288 10.767 8.53057C10.8305 8.48793 10.8907 8.44202 10.9543 8.3961C11.0413 8.32723 11.1316 8.25836 11.2219 8.20261C11.5864 7.98288 11.9978 7.88121 12.3557 7.80906C12.5597 7.76642 12.7637 7.74675 12.9644 7.74347C13.1751 7.76642 13.3892 7.77626 13.5966 7.78282C13.9979 7.79922 14.4127 7.81562 14.804 7.94024C15.0113 8.00255 15.2221 8.01567 15.4261 8.02551C15.5197 8.03207 15.6167 8.03535 15.7104 8.04519C15.9077 8.06815 16.1084 8.11078 16.299 8.15014C16.376 8.16653 16.4529 8.18293 16.5265 8.19605C16.5532 8.20261 16.58 8.21245 16.6 8.22885C16.8308 8.39283 17.0817 8.47809 17.3459 8.56336C17.4763 8.606 17.5633 8.67159 17.5968 8.76014C17.6302 8.85197 17.6034 8.96347 17.5232 9.0881Z" fill="#282828"/>
<path d="M13.3554 5.91407C13.3521 5.99278 13.2986 6.09117 13.2585 6.15676C13.0745 6.46176 12.8604 6.81595 12.6163 7.14063C12.5059 7.29477 12.3521 7.39644 12.1581 7.44563C12.0912 7.46531 12.0243 7.48171 11.9574 7.49811C11.7534 7.5473 11.5393 7.59649 11.342 7.69488C11.0175 7.86214 10.7767 8.03268 10.5928 8.23601L10.576 8.25569C10.576 8.25569 10.5593 8.27537 10.5459 8.28521C10.4556 8.37704 10.4556 8.38031 10.3653 8.3016C10.1178 8.09827 9.90378 7.98021 9.67969 7.91789C9.67969 7.91461 9.68638 7.91461 9.68972 7.91133C9.75996 7.85886 9.83019 7.80639 9.89709 7.75391L10.0309 7.65553C10.158 7.56042 10.2617 7.44563 10.3653 7.33413C10.4255 7.26526 10.4924 7.19639 10.5593 7.13079C10.5995 7.09472 10.6429 7.06192 10.6864 7.02913C10.7767 6.96026 10.8704 6.89138 10.9239 6.793C11.1279 6.42896 11.4824 6.30434 11.857 6.17315L11.9273 6.1502C12.041 6.10756 12.1547 6.06821 12.2684 6.02885C12.5527 5.93375 12.8437 5.83208 13.1247 5.71401C13.1815 5.68778 13.235 5.68778 13.2752 5.71401C13.3253 5.74681 13.3554 5.82224 13.3554 5.91407Z" fill="#EFEDE4"/>
<path d="M17.5092 9.079C17.3921 9.25282 17.2349 9.38728 17.0376 9.47583C16.4055 9.7546 15.8335 9.94481 15.295 10.0563C15.0241 10.1121 14.7432 10.1449 14.4622 10.1514C14.0809 10.1645 13.7164 10.2465 13.3786 10.3351C13.0842 10.4105 12.7899 10.381 12.5391 10.3449C12.2615 10.3088 11.9872 10.2367 11.7196 10.1711C11.5658 10.1318 11.4153 10.0924 11.2614 10.0596C11.1979 10.0465 11.1343 10.0334 11.0674 10.0202C10.9938 10.0038 10.9169 9.98745 10.8433 9.97105C10.7463 9.94809 10.6995 9.89562 10.6962 9.80707C10.6928 9.65621 10.6661 9.44304 10.4587 9.29546C10.4587 9.29218 10.4453 9.28562 10.4453 9.27906C10.4453 9.2725 10.4487 9.25938 10.4587 9.24954C10.5891 9.10196 10.6092 8.9183 10.6159 8.76088C10.6192 8.65594 10.6627 8.58379 10.7497 8.52147C10.8132 8.47884 10.8768 8.43293 10.937 8.38701C11.0239 8.31814 11.1142 8.24927 11.2079 8.19352C11.5691 7.97378 11.9838 7.87212 12.3384 7.79997C12.5424 7.75733 12.7498 7.73765 12.9471 7.73438C13.1578 7.75733 13.3719 7.76717 13.5792 7.77373C13.9806 7.79013 14.3953 7.80653 14.7867 7.93115C14.9974 7.99346 15.2047 8.00658 15.4088 8.01642C15.5024 8.02298 15.5994 8.02626 15.6931 8.0361C15.8904 8.05905 16.0911 8.10169 16.2817 8.14104C16.3586 8.15744 16.4356 8.17384 16.5091 8.18696C16.5359 8.19352 16.5627 8.20336 16.5827 8.21975C16.8135 8.38373 17.0677 8.469 17.3286 8.55427C17.459 8.59691 17.546 8.6625 17.5794 8.75105C17.6129 8.84287 17.5895 8.95438 17.5092 9.079Z" fill="white"/>
<path d="M13.8441 12.9093C13.8441 12.9093 13.7738 12.9486 13.7538 12.9584C13.5564 13.0568 13.339 13.0798 13.0781 13.0831H13.0581C12.2386 13.0831 11.5262 12.9125 10.8774 12.5682C10.6332 12.437 10.3556 12.2894 10.1315 12.0762C10.0546 12.0008 10.0044 11.909 9.94756 11.8139C9.91746 11.7614 9.88401 11.7056 9.84722 11.6532C9.78367 11.5646 9.72346 11.4728 9.66326 11.381C9.62981 11.3285 9.59637 11.2793 9.56292 11.2268C9.51944 11.1645 9.48934 11.0891 9.47596 11.0038C9.45589 10.889 9.49268 10.8267 9.59637 10.7906C9.65323 10.771 9.71009 10.7611 9.76026 10.7611C9.95759 10.7513 10.1449 10.6824 10.3456 10.548C10.3589 10.5414 10.3656 10.5348 10.3723 10.5283L10.3824 10.5184L10.4091 10.4922C10.4091 10.4922 10.4894 10.4463 10.6968 10.4463C10.7536 10.4463 10.8239 10.4496 10.9075 10.4561H10.9208C11.2787 10.4594 11.5731 10.4922 11.8507 10.6299C11.9242 10.666 11.9878 10.7152 12.0547 10.7644C12.0915 10.7906 12.1249 10.8169 12.165 10.8464L12.1818 10.8661C12.3891 11.1219 12.5096 11.2727 12.5397 11.3088C12.543 11.3088 12.543 11.3121 12.5463 11.3154C12.7203 11.5122 12.8808 11.7253 13.0313 11.9352L13.1283 12.0631C13.3624 12.3845 13.5731 12.6338 13.7839 12.8469C13.8273 12.8896 13.8407 12.9093 13.8441 12.9093Z" fill="#F4F4F4"/>
<path d="M11.5759 16.2804C11.5759 16.3591 11.5525 16.4181 11.5091 16.4509C11.4689 16.4771 11.4154 16.4804 11.3519 16.4607C11.1612 16.3984 10.9605 16.3296 10.713 16.241C10.5926 16.1984 10.4823 16.1295 10.3485 16.018C10.2281 15.913 10.101 15.8147 9.98055 15.7163C9.72971 15.5228 9.47552 15.3194 9.26146 15.08C8.87014 14.634 8.52564 14.2241 8.25807 13.7452C8.19117 13.6206 8.15104 13.4862 8.1109 13.3451C8.08415 13.2566 8.05739 13.1648 8.02394 13.0795C8.01056 13.0434 8.03063 13.0008 8.04401 12.9811C8.27814 12.6072 8.36509 12.1776 8.32496 11.5938C8.31492 11.4364 8.33499 11.4102 8.49888 11.3741C8.55909 11.3577 8.62263 11.3479 8.68618 11.3347C8.73301 11.3282 8.78317 11.3183 8.83 11.3085C8.94372 11.2856 9.04406 11.2298 9.13771 11.174L9.17784 11.1544C9.17784 11.1544 9.19122 11.1445 9.19457 11.1445C9.19457 11.1478 9.19791 11.1478 9.19791 11.1511C9.27149 11.4528 9.45211 11.6955 9.62937 11.9284L9.65612 11.9677C9.75312 12.0923 9.84342 12.2104 9.91701 12.3416C9.94376 12.3875 9.97387 12.4334 10.024 12.4629C10.315 12.6335 10.4555 12.9122 10.6027 13.2041C10.9505 13.8895 11.2114 14.6602 11.4589 15.6999L11.4723 15.7589C11.5157 15.9426 11.5559 16.1131 11.5759 16.2804Z" fill="#F4F4F4"/>
<path d="M7.98691 11.9488C7.99695 12.2374 7.89661 12.4997 7.79292 12.7195L7.76282 12.7851C7.69259 12.9425 7.619 13.1032 7.50863 13.2409C7.48187 13.2803 7.44508 13.3 7.40829 13.3H7.4016C7.36816 13.2967 7.33805 13.2737 7.31799 13.2344C7.13403 12.8769 6.94338 12.5063 6.86646 12.0964C6.80625 11.7914 6.8698 11.5815 7.07382 11.4208C7.11062 11.3912 7.14407 11.3617 7.17751 11.3322C7.20761 11.3027 7.23771 11.2765 7.26781 11.2502C7.29457 11.2305 7.32133 11.2207 7.34474 11.2207C7.3715 11.2207 7.39491 11.2305 7.41833 11.2535C7.50863 11.3355 7.61231 11.3847 7.73941 11.4076C7.86985 11.4306 7.94009 11.5159 7.96016 11.6634C7.97019 11.7225 7.97354 11.7881 7.97688 11.8504C7.98023 11.8832 7.98357 11.9193 7.98691 11.9488Z" fill="#EFEDE4"/>
<path d="M7.23421 13.9625C7.02685 14.4905 6.72248 14.9595 6.3345 15.3563C6.33116 15.3563 6.32447 15.3661 6.32447 15.3661C6.31109 15.376 6.30106 15.3891 6.29102 15.3989C6.2743 15.4153 6.24754 15.4416 6.24085 15.4449C6.22079 15.435 6.21075 15.4219 6.20741 15.4055C6.20406 15.3957 6.20741 15.3989 6.20072 15.3924C6.13383 15.2612 6.05355 14.9201 6.03014 14.8152C5.91977 14.3757 5.8696 13.9297 5.88298 13.4902C5.88632 13.382 5.88632 13.2738 5.88632 13.1655C5.88632 12.9884 5.88632 12.8081 5.8997 12.631C5.92311 12.3325 6.00673 12.0406 6.07362 11.8209C6.10707 11.7192 6.14721 11.6963 6.29437 11.6963H6.34119C6.41478 11.7028 6.48836 11.7061 6.49839 11.716C6.50508 11.7258 6.50174 11.775 6.50174 11.8176C6.49839 11.8406 6.49839 11.8668 6.49839 11.8931C6.48501 12.3686 6.66897 12.7851 6.86296 13.1754C6.86965 13.1852 6.87634 13.1983 6.88302 13.2082C6.8964 13.2311 6.90978 13.2541 6.91647 13.2803C6.94992 13.3918 7.03019 13.4607 7.09708 13.5066C7.27435 13.6345 7.31448 13.7657 7.23421 13.9625Z" fill="white"/>
<path d="M5.5357 15.6121C5.48218 15.6744 5.43201 15.7433 5.38519 15.8089C5.36178 15.8417 5.33836 15.8745 5.31495 15.9073C5.07748 16.2189 4.82663 16.5009 4.57244 16.7534C4.53899 16.7862 4.49886 16.819 4.44869 16.8551C4.35838 16.9174 4.32493 16.9141 4.25804 16.8256C4.17108 16.7141 4.11757 16.5796 4.09416 16.4156C4.0674 16.2254 4.05737 16.0286 4.04733 15.8384C4.04064 15.7007 4.03395 15.5629 4.02057 15.4252C4.00051 15.1005 4.00719 14.766 4.05067 14.4282C4.06405 14.3134 4.07743 14.1986 4.09081 14.0806C4.1276 13.7296 4.16773 13.3656 4.26807 13.018C4.36841 12.6769 4.49217 12.4211 4.66609 12.2145C4.74636 12.1128 4.83332 12.0505 4.93366 12.0177C5.1243 11.9587 5.26812 11.8406 5.40191 11.7258C5.45877 11.6733 5.50894 11.6504 5.56245 11.6504C5.57918 11.6504 5.59925 11.6537 5.61597 11.6602C5.67283 11.6733 5.67617 11.6963 5.67283 11.7324C5.66614 11.7521 5.66279 11.7717 5.65945 11.7914C5.6561 11.8242 5.64941 11.857 5.63938 11.8898C5.55911 12.1653 5.52901 12.444 5.50894 12.7786C5.48887 13.1459 5.47884 13.4476 5.47884 13.7296C5.47884 14.1626 5.54239 14.5725 5.6561 14.9497C5.73972 15.2186 5.70293 15.4219 5.5357 15.6121Z" fill="#F4F4F4"/>
<path d="M4.87654 10.5741C4.68255 10.9218 4.716 11.1776 4.99361 11.4563C5.00698 11.4727 5.01033 11.4793 5.01367 11.4826C5.01033 11.4826 5.00698 11.4891 4.99026 11.5023C4.94678 11.5318 4.89661 11.558 4.83306 11.581C4.40495 11.7351 4.04707 12.0106 3.74605 12.2566C3.24101 12.6731 2.8129 13.165 2.46171 13.5881C2.23428 13.8636 1.98343 14.1161 1.74596 14.3457C1.562 14.5228 1.42153 14.6999 1.31115 14.8835C1.24761 14.9885 1.16733 15.0344 1.05362 15.0212C0.742564 14.9917 0.675672 14.9589 0.605435 14.6703C0.565299 14.4867 0.555264 14.2997 0.55192 14.0767C0.538541 13.7816 0.645572 13.4536 0.742566 13.2011C1.0001 12.5189 1.44159 11.8892 2.0938 11.2694C2.64232 10.7512 3.19084 10.3774 3.77281 10.1183C4.16079 9.94774 4.49525 9.85919 4.82303 9.83951C4.85982 9.83951 4.89661 9.83951 4.9334 9.81983C4.96685 9.80343 4.99695 9.79688 5.0304 9.79688C5.09395 9.79688 5.15749 9.82967 5.24111 9.9051C5.28459 9.94446 5.33476 9.98709 5.3381 10.0035C5.3381 10.0166 5.28124 10.0724 5.24445 10.1084C5.09395 10.2495 4.97019 10.4069 4.87654 10.5741Z" fill="white"/>
<path d="M4.9736 9.34394C4.90671 9.39641 4.82309 9.40625 4.73279 9.41609H4.70604C4.52208 9.44233 4.36822 9.48168 4.23109 9.53416C4.04379 9.60959 3.85649 9.68174 3.66919 9.75389C3.52538 9.80964 3.37821 9.86867 3.23105 9.92443C3.20095 9.93754 3.18088 9.94082 3.16416 9.93426C2.93338 9.82932 2.68252 9.80636 2.44506 9.7998C2.15407 9.79324 1.93667 9.6227 1.7594 9.46528C1.75606 9.46528 1.74937 9.45872 1.74603 9.45872C1.64903 9.36034 1.38146 9.24555 1.16741 9.16028C1.16406 9.16028 1.15737 9.157 1.15402 9.157C1.07041 9.13733 0.983447 9.11109 0.903176 9.07173C0.779424 9.0127 0.64564 8.95695 0.491787 8.9012C0.444962 8.8848 0.41486 8.86512 0.408171 8.84544C0.398137 8.82576 0.408173 8.78969 0.431586 8.74378C0.521891 8.56668 0.672397 8.42894 0.9199 8.29775C1.06706 8.22232 1.2343 8.17969 1.38146 8.17969H1.4216C1.59886 8.17969 1.71258 8.20264 1.81292 8.26168C2.01025 8.37318 2.22766 8.4191 2.43837 8.45845L2.50191 8.47157C2.65911 8.50437 2.80962 8.56996 2.95344 8.63227C2.99692 8.65195 3.04375 8.67162 3.08723 8.68802C3.6324 8.91759 4.22106 9.0455 4.83648 9.07173H4.86658C4.86658 9.07173 4.88999 9.07173 4.89668 9.07501C4.92343 9.08157 4.95354 9.07829 4.97695 9.07501C5.02378 9.07173 5.02712 9.07501 5.03715 9.09469C5.06725 9.17996 5.03715 9.29475 4.9736 9.34394Z" fill="#EFEDE4"/>
<path d="M12.0173 2.00839C12.0173 2.12318 11.9939 2.23141 11.9504 2.33307C11.743 2.80205 11.5925 3.29727 11.4487 3.77609C11.4186 3.8712 11.3918 3.96631 11.3617 4.06141C11.1376 4.7862 10.8567 5.63889 10.4854 6.44239C10.3349 6.76379 10.1911 7.04911 9.95029 7.27868C9.86333 7.36395 9.76299 7.45906 9.64927 7.52793C9.49208 7.61976 9.33488 7.73127 9.18437 7.86245C9.11079 7.92476 9.02382 7.93788 8.92683 7.951C8.93686 7.91492 8.95359 7.88213 8.96696 7.84933C9.09072 7.55417 9.04054 7.35083 8.78301 7.15078C8.62581 7.02616 8.44855 6.89825 8.21777 6.87202C8.15087 6.86218 8.1007 6.81298 8.05722 6.71132C7.95019 6.46535 7.92344 6.21282 7.97695 5.96685C8.09067 5.45196 8.33483 4.98298 8.69939 4.57303C8.75291 4.51728 8.79639 4.45496 8.83318 4.39265C8.85994 4.3533 8.89004 4.3205 8.92349 4.3041C8.93018 4.29754 8.93686 4.29098 8.94021 4.28443L9.28805 3.86464C9.30477 3.84496 9.32484 3.82528 9.34491 3.80561L9.79978 3.37598C9.89343 3.27431 9.99377 3.17921 10.0941 3.08738C10.2045 2.98899 10.3149 2.88404 10.4152 2.77254C10.5423 2.63151 10.6727 2.49377 10.8032 2.35931C10.8567 2.30356 10.9102 2.24452 10.9637 2.18877C11.0908 2.05431 11.1912 1.91001 11.2681 1.76243C11.3483 1.60501 11.6059 1.45742 11.7932 1.46726C11.8199 1.47054 11.8333 1.48038 11.8534 1.51318C11.9638 1.68044 12.0173 1.84114 12.0173 2.00839Z" fill="white"/>
<path d="M8.7564 3.91964C8.52562 4.17217 8.23797 4.48701 8.02726 4.83793C7.75635 5.29379 7.60584 5.69062 7.55567 6.08417C7.51888 6.36621 7.55901 6.62858 7.67942 6.85487C7.68611 6.86471 7.68946 6.87455 7.68946 6.88111H7.66939C7.62256 6.87783 7.57908 6.88439 7.53226 6.88767C7.50884 6.89095 7.48878 6.89095 7.45533 6.89751C7.43526 6.90078 7.42523 6.90078 7.42523 6.90078C7.42523 6.90078 7.41854 6.88767 7.41854 6.85159C7.41854 6.58266 7.37171 6.3203 7.27472 6.04809C7.13424 5.65782 7.08073 5.24459 7.04729 4.8904C7.03391 4.74282 7.03725 4.5854 7.04394 4.43782C7.04394 4.35911 7.04729 4.2804 7.04729 4.20169C7.05397 4.15905 7.08407 3.95244 7.11752 3.7655L7.13424 3.66384C7.20114 3.31948 7.26134 2.9948 7.48543 2.72259C7.62591 2.55206 7.79648 2.41759 7.99381 2.32577C8.05736 2.29297 8.1577 2.27001 8.27811 2.40775C8.36173 2.50614 8.43196 2.62093 8.48213 2.75539C8.56909 2.98496 8.65271 3.21453 8.73632 3.44738L8.80656 3.64744C8.85004 3.75894 8.83667 3.83765 8.7564 3.91964Z" fill="#F4F4F4"/>
<path d="M7.05078 6.82237C7.04075 7.00274 6.95713 7.13393 6.80662 7.20936C6.46213 7.38646 6.44206 7.69802 6.45878 7.91447V7.93415C6.46212 7.96694 6.46547 7.99974 6.46547 8.0063C6.45544 8.01286 6.41196 8.0227 6.37851 8.02597C6.00391 8.09157 5.71292 8.19323 5.45539 8.35065C5.39853 8.38345 5.35505 8.4228 5.3216 8.46872C5.25137 8.57367 5.14434 8.62942 4.99717 8.63598C4.72626 8.6491 4.4821 8.62614 4.25466 8.56055C4.15767 8.53103 4.06402 8.50479 3.96702 8.47856C3.76635 8.4228 3.55898 8.36377 3.3583 8.29818C3.0138 8.18012 2.66596 7.98662 2.29805 7.70786L2.09068 7.55372C1.7696 7.31103 1.43513 7.0585 1.12408 6.79285C1.0204 6.7043 0.926744 6.59936 0.839784 6.48129C0.792959 6.42226 0.776237 6.37306 0.789616 6.33371C0.79965 6.29435 0.843132 6.25828 0.916714 6.22548C1.22108 6.10414 1.54885 6.03527 1.89669 6.02871C1.9201 6.02871 1.94017 6.02543 1.96358 6.02543C2.32815 6.02543 2.70944 6.10414 3.15762 6.26156C3.22786 6.2878 3.2981 6.31403 3.36834 6.33699C3.55898 6.40258 3.75631 6.46817 3.94027 6.56328C4.18777 6.68463 4.41186 6.85188 4.62592 7.01258C4.67274 7.04866 4.71622 7.08146 4.76305 7.11425C4.80653 7.14705 4.85335 7.18312 4.90018 7.21592C4.99048 7.28807 5.08748 7.36022 5.18782 7.42581C5.3818 7.55699 5.59252 7.62587 5.81327 7.63243H5.93702C6.03067 7.63898 6.12766 7.63898 6.22466 7.63898C6.28486 7.63898 6.33168 7.61275 6.3551 7.57011C6.37851 7.53076 6.37517 7.475 6.34172 7.42253C6.2949 7.34054 6.21462 7.29135 6.12432 7.28807C5.60924 7.25855 5.26809 6.95027 4.97376 6.62231C4.7597 6.3829 4.59582 6.10086 4.44196 5.82537L4.41186 5.77946C4.21118 5.42855 3.98375 5.08091 3.76634 4.74639C3.69945 4.64472 3.63256 4.54306 3.56567 4.43811C3.47536 4.29709 3.40513 4.15607 3.3583 4.01832C3.25796 3.71004 3.12083 3.4116 2.98705 3.12628C2.93688 3.02133 2.88671 2.91311 2.83988 2.80816C2.75627 2.62122 2.68603 2.42773 2.61913 2.23751L2.55893 2.06041C2.48535 1.86036 2.43852 1.6603 2.38835 1.43401C2.33484 1.18804 2.30808 0.925677 2.31477 0.630515C2.31812 0.571482 2.32815 0.522289 2.34487 0.476375C2.36828 0.427181 2.38166 0.417342 2.3917 0.414062C2.39839 0.414062 2.41511 0.414063 2.45859 0.440299C2.58234 0.51573 2.69606 0.610838 2.80643 0.699386C2.84657 0.732182 2.88671 0.764978 2.92684 0.797774C3.63256 1.36514 4.15098 1.82756 4.59916 2.30638C4.98045 2.70649 5.36174 3.15579 5.79989 3.7166C6.28486 4.33972 6.55912 5.04155 6.76649 5.64828C6.79324 5.72699 6.82 5.8057 6.8501 5.88113C6.92368 6.0779 7.00061 6.28124 7.03072 6.49113C7.04409 6.59608 7.05747 6.70758 7.05078 6.82237Z" fill="white"/>
</svg>
